<?xml version="1.0" encoding="UTF-8"?>
<svg id="Layer_1" data-name="Layer 1" xmlns="http://www.w3.org/2000/svg" version="1.1" xmlns:xlink="http://www.w3.org/1999/xlink" viewBox="0 0 373.2 126.4">
  <defs>
    <style>
      .cls-1 {
        fill: url(#linear-gradient-12);
      }

      .cls-1, .cls-2, .cls-3, .cls-4, .cls-5, .cls-6, .cls-7, .cls-8, .cls-9, .cls-10, .cls-11, .cls-12, .cls-13, .cls-14, .cls-15, .cls-16, .cls-17, .cls-18, .cls-19, .cls-20, .cls-21, .cls-22, .cls-23, .cls-24, .cls-25, .cls-26, .cls-27, .cls-28, .cls-29, .cls-30, .cls-31 {
        stroke-width: 0px;
      }

      .cls-2 {
        fill: url(#linear-gradient-17);
      }

      .cls-3 {
        fill: url(#linear-gradient-19);
      }

      .cls-4 {
        fill: url(#linear-gradient);
      }

      .cls-5 {
        fill: url(#linear-gradient-21);
      }

      .cls-6 {
        fill: url(#linear-gradient-6);
      }

      .cls-32 {
        isolation: isolate;
      }

      .cls-7 {
        fill: url(#linear-gradient-15);
      }

      .cls-8 {
        fill: url(#linear-gradient-11);
      }

      .cls-9 {
        fill: url(#linear-gradient-5);
      }

      .cls-10 {
        fill: url(#linear-gradient-13);
      }

      .cls-11 {
        fill: url(#linear-gradient-23);
      }

      .cls-12 {
        fill: url(#linear-gradient-25);
      }

      .cls-13 {
        fill: url(#linear-gradient-16);
      }

      .cls-14 {
        fill: url(#linear-gradient-22);
      }

      .cls-15 {
        fill: url(#linear-gradient-20);
      }

      .cls-16 {
        fill: url(#linear-gradient-14);
      }

      .cls-17 {
        fill: url(#linear-gradient-2);
      }

      .cls-18 {
        fill: url(#linear-gradient-7);
      }

      .cls-19 {
        fill: url(#linear-gradient-3);
      }

      .cls-20 {
        fill: url(#linear-gradient-9);
      }

      .cls-21 {
        fill: url(#linear-gradient-27);
      }

      .cls-22 {
        fill: #151516;
      }

      .cls-23 {
        fill: url(#linear-gradient-8);
      }

      .cls-24 {
        fill: url(#linear-gradient-24);
      }

      .cls-25 {
        fill: url(#linear-gradient-26);
      }

      .cls-26 {
        fill: url(#linear-gradient-18);
      }

      .cls-27 {
        fill: url(#linear-gradient-30);
      }

      .cls-28 {
        fill: url(#linear-gradient-29);
      }

      .cls-29 {
        fill: url(#linear-gradient-28);
      }

      .cls-30 {
        fill: url(#linear-gradient-10);
      }

      .cls-31 {
        fill: url(#linear-gradient-4);
      }
    </style>
    <linearGradient id="linear-gradient" x1="258.6" y1="65.8" x2="298.1" y2="134.2" gradientUnits="userSpaceOnUse">
      <stop offset="0" stop-color="#8d0e1b"/>
      <stop offset="1" stop-color="#f15a29"/>
    </linearGradient>
    <linearGradient id="linear-gradient-2" x1="318.7" y1="31.1" x2="358.3" y2="99.5" xlink:href="#linear-gradient"/>
    <linearGradient id="linear-gradient-3" x1="312.1" y1="34.9" x2="351.7" y2="103.3" xlink:href="#linear-gradient"/>
    <linearGradient id="linear-gradient-4" x1="302.5" y1="40.4" x2="342.1" y2="108.8" xlink:href="#linear-gradient"/>
    <linearGradient id="linear-gradient-5" x1="263.9" y1="62.7" x2="303.4" y2="131.2" xlink:href="#linear-gradient"/>
    <linearGradient id="linear-gradient-6" x1="308.2" y1="37.1" x2="347.8" y2="105.6" xlink:href="#linear-gradient"/>
    <linearGradient id="linear-gradient-7" x1="300.7" y1="41.5" x2="340.2" y2="109.9" xlink:href="#linear-gradient"/>
    <linearGradient id="linear-gradient-8" x1="291" y1="47.1" x2="330.6" y2="115.5" xlink:href="#linear-gradient"/>
    <linearGradient id="linear-gradient-9" x1="281.1" y1="52.8" x2="320.7" y2="121.2" xlink:href="#linear-gradient"/>
    <linearGradient id="linear-gradient-10" x1="267.6" y1="60.6" x2="307.1" y2="129" xlink:href="#linear-gradient"/>
    <linearGradient id="linear-gradient-11" x1="276.5" y1="55.5" x2="316" y2="123.9" xlink:href="#linear-gradient"/>
    <linearGradient id="linear-gradient-12" x1="289.7" y1="47.8" x2="329.3" y2="116.3" xlink:href="#linear-gradient"/>
    <linearGradient id="linear-gradient-13" x1="278.3" y1="54.4" x2="317.8" y2="122.9" xlink:href="#linear-gradient"/>
    <linearGradient id="linear-gradient-14" x1="258.3" y1="66" x2="297.9" y2="134.4" xlink:href="#linear-gradient"/>
    <linearGradient id="linear-gradient-15" x1="260.4" y1="64.8" x2="299.9" y2="133.2" xlink:href="#linear-gradient"/>
    <linearGradient id="linear-gradient-16" x1="323.7" y1="28.2" x2="363.2" y2="96.6" xlink:href="#linear-gradient"/>
    <linearGradient id="linear-gradient-17" x1="322.3" y1="29" x2="361.8" y2="97.5" xlink:href="#linear-gradient"/>
    <linearGradient id="linear-gradient-18" x1="339.9" y1="18.8" x2="379.5" y2="87.3" xlink:href="#linear-gradient"/>
    <linearGradient id="linear-gradient-19" x1="338.2" y1="19.8" x2="377.7" y2="88.3" xlink:href="#linear-gradient"/>
    <linearGradient id="linear-gradient-20" x1="331.9" y1="23.4" x2="371.5" y2="91.9" xlink:href="#linear-gradient"/>
    <linearGradient id="linear-gradient-21" x1="337.5" y1="20.2" x2="377" y2="88.7" xlink:href="#linear-gradient"/>
    <linearGradient id="linear-gradient-22" x1="328.6" y1="25.3" x2="368.2" y2="93.8" xlink:href="#linear-gradient"/>
    <linearGradient id="linear-gradient-23" x1="315.8" y1="32.7" x2="355.4" y2="101.2" xlink:href="#linear-gradient"/>
    <linearGradient id="linear-gradient-24" x1="299.6" y1="42.1" x2="339.1" y2="110.6" xlink:href="#linear-gradient"/>
    <linearGradient id="linear-gradient-25" x1="269" y1="59.8" x2="308.5" y2="128.3" xlink:href="#linear-gradient"/>
    <linearGradient id="linear-gradient-26" x1="281.5" y1="52.5" x2="321.1" y2="121" xlink:href="#linear-gradient"/>
    <linearGradient id="linear-gradient-27" x1="261.3" y1="64.2" x2="300.9" y2="132.7" xlink:href="#linear-gradient"/>
    <linearGradient id="linear-gradient-28" x1="323" y1="28.6" x2="362.5" y2="96.9" xlink:href="#linear-gradient"/>
    <linearGradient id="linear-gradient-29" x1="324" y1="28" x2="363.6" y2="96.4" xlink:href="#linear-gradient"/>
    <linearGradient id="linear-gradient-30" x1="315.8" y1="32.7" x2="355.3" y2="101.2" xlink:href="#linear-gradient"/>
  </defs>
  <g>
    <path class="cls-22" d="M50.6,55.4c5.6,0,10.1,4.6,10.1,10.1v17.8c0,1.6-1.3,2.9-3,2.9s-3-1.3-3-2.9v-17.8c0-2.2-1.7-4-4.1-4h-11.2c-2.1,0-3.8,1.8-3.8,4v17.8c0,1.4-1.1,2.4-2.3,2.8-.4.2-.6.1-.9.1-1.7,0-3-1.3-3-2.9v-17.8c0-2.2-1.7-4-4-4h-10.8c-2.1,0-3.9,1.8-3.9,4v17.8c0,1.6-1.5,2.9-3,2.9s-2.9-1.3-2.9-2.9v-17.8c0-5.5,4.4-10.1,9.8-10.1h10.8c2.8,0,5.3,1.3,7,3.1,1.9-1.8,4.2-3.1,7-3.1h11.2Z"/>
    <path class="cls-22" d="M92.8,55.4c5.4,0,9.8,4.4,9.8,9.8v6.2c0,1.7-1.3,3-3,3h-27.6v2c0,2.1,1.8,4,4,4h22.6c1.5,0,3,1.2,3,2.9s-1.4,3-3,3h-22.5c-5.4,0-9.8-4.4-9.8-9.8v-11.1c0-5.4,4.4-9.8,9.8-9.8h16.7ZM72.1,68.5h24.7v-3.4c0-2.2-1.8-4-4-4h-16.7c-2.2,0-4,1.8-4,4v3.4Z"/>
    <path class="cls-22" d="M140.8,40.3c1.7,0,2.9,1.3,2.9,3v33.1c0,5.4-4.4,9.9-9.8,9.9h-15.9c-5.4,0-9.7-4.4-9.7-9.9v-11c0-5.4,4.3-9.9,9.7-9.9h19.9v-12.2c0-1.7,1.3-3,2.9-3ZM114.1,76.3c0,2.2,1.8,4,3.9,4h15.9c2.3,0,4-1.8,4-4v-15.1h-19.9c-2.1,0-3.9,1.8-3.9,4v11.1Z"/>
    <path class="cls-22" d="M150.2,47.9c0-1.7,1.3-3,3-3s3,1.3,3,3v1.9c0,1.6-1.4,3-3,3s-3-1.4-3-3v-1.9ZM156.2,58.3v24.9c0,1.7-1.4,3-3,3s-3-1.3-3-3v-24.9c0-1.6,1.3-2.9,3-2.9s3,1.3,3,2.9Z"/>
    <path class="cls-22" d="M188.7,55.4c5.4,0,9.7,4.3,9.7,9.7v11.4c0,5.4-4.3,9.7-9.6,9.7h-16.8c-5.4,0-9.7-4.4-9.7-9.7s4.4-9.8,9.8-9.8h20.6v-1.6c0-2.2-1.8-3.9-3.9-3.9h-23.3c-1.7,0-3-1.3-3-2.9s1.3-2.9,3-2.9h23.3ZM172,80.3h16.8c2.1,0,3.8-1.8,3.8-3.8v-3.9h-20.6c-2.2,0-3.9,1.8-3.9,3.9s1.7,3.8,3.8,3.8Z"/>
    <path class="cls-22" d="M228.1,55.4c5.5,0,9.9,4.4,9.9,9.9v17.9c0,1.7-1.3,3-3,3s-2.9-1.3-2.9-3v-17.9c0-2.2-1.8-4-4-4h-18v21.9c0,1.7-1.4,3-3,3s-3-1.3-3-3v-24.9c0-1.7,1.2-2.9,2.9-3h21Z"/>
  </g>
  <g>
    <path class="cls-4" d="M265.8,72c.4.4.7.8.9,1.3,1,2,.4,4.1-1.4,4.7-1.3.5-3-.1-4.1-1.3-.4-.4-.7-.8-.9-1.3-1-2-.4-4.1,1.3-4.7,1.4-.5,3,.1,4.2,1.3Z"/>
    <path class="cls-17" d="M333.2,50.9c.3.3.6.7.8,1.1.9,1.7.3,3.5-1.1,4-1.1.4-2.5-.1-3.5-1.1-.3-.3-.5-.7-.7-1-.9-1.7-.3-3.5,1.1-4,1.1-.4,2.5,0,3.5,1.1Z"/>
    <path class="cls-19" d="M330.7,60.2c.4.4.7.9,1,1.4,1.1,2.2.4,4.5-1.5,5.1-1.5.5-3.2-.1-4.5-1.4-.4-.4-.7-.9-1-1.4-1.1-2.2-.4-4.5,1.5-5.1,1.5-.5,3.2.1,4.5,1.4Z"/>
    <path class="cls-31" d="M323.7,68.1c.5.5.9,1.1,1.3,1.8,1.5,2.9.6,5.9-1.9,6.7-1.9.6-4.3-.2-5.9-1.9-.5-.5-.9-1.1-1.3-1.8-1.5-2.9-.6-5.9,1.9-6.7,1.9-.6,4.3.2,5.9,1.9Z"/>
    <path class="cls-9" d="M259.8,51.4c.2.2.4.5.6.8.7,1.4.3,2.8-.9,3.2-.9.3-2,0-2.8-.9-.2-.2-.5-.5-.6-.9-.7-1.4-.3-2.8.9-3.2.9-.3,2.1,0,2.9.9Z"/>
    <path class="cls-6" d="M293.1,6.7c.2.2.4.5.6.8.7,1.4.3,2.8-.9,3.2-.9.3-2,0-2.8-.9-.2-.2-.4-.5-.6-.9-.7-1.4-.3-2.8.9-3.2.9-.3,2,0,2.8.9Z"/>
    <path class="cls-18" d="M285.5,9.8c.3.3.5.7.7,1.1.9,1.7.3,3.5-1.1,4-1.1.4-2.5-.1-3.5-1.1-.3-.3-.6-.7-.7-1.1-.8-1.7-.3-3.5,1.1-4,1.1-.4,2.5,0,3.5,1.1Z"/>
    <path class="cls-23" d="M277.3,15.5c.4.4.8,1,1.1,1.6,1.2,2.5.5,5.1-1.7,5.8-1.7.6-3.7-.1-5.1-1.6-.4-.4-.8-1-1.1-1.6-1.3-2.5-.5-5,1.6-5.8,1.7-.5,3.7.1,5.1,1.6Z"/>
    <path class="cls-20" d="M272.7,27.9c.6.6,1.1,1.3,1.5,2.1,1.7,3.3.7,6.8-2.2,7.8-2.2.8-4.9-.2-6.8-2.2-.6-.6-1.1-1.3-1.5-2.1-1.7-3.3-.7-6.8,2.2-7.8,2.2-.7,4.9.2,6.8,2.2Z"/>
    <path class="cls-30" d="M260,44.2c.2.2.3.4.5.6.5,1,.2,2.1-.7,2.4-.7.2-1.5,0-2.1-.7-.2-.2-.3-.4-.5-.6-.5-1-.2-2.1.7-2.4.7-.2,1.5,0,2.1.7Z"/>
    <path class="cls-8" d="M277.4,45.5c.6.7,1.2,1.4,1.6,2.3,1.8,3.7.7,7.5-2.5,8.6-2.5.8-5.4-.2-7.6-2.4-.6-.7-1.2-1.4-1.6-2.3-1.9-3.7-.7-7.5,2.5-8.6,2.5-.8,5.5.2,7.6,2.4Z"/>
    <g class="cls-32">
      <path class="cls-1" d="M309.7,70.7c.7.7,1.2,1.5,1.7,2.3,1.9,3.7.7,7.6-2.5,8.7-2.5.8-5.5-.2-7.7-2.4-.7-.7-1.2-1.5-1.7-2.3-1.9-3.7-.8-7.6,2.5-8.7,2.5-.9,5.5.2,7.7,2.4Z"/>
      <path class="cls-10" d="M290.1,61.1c.8.8,1.4,1.7,2,2.8,2.2,4.4.9,9.1-3,10.4-3,1-6.6-.3-9.1-2.9-.8-.8-1.4-1.7-2-2.8-2.2-4.4-.9-9,3-10.4,3-1,6.6.3,9.1,2.9Z"/>
    </g>
    <path class="cls-16" d="M273.3,84c.4.5.8,1,1.1,1.6,1.3,2.5.5,5.2-1.7,6-1.7.6-3.8-.1-5.2-1.7-.4-.5-.8-1-1.1-1.6-1.3-2.5-.5-5.2,1.7-6,1.7-.6,3.8.2,5.2,1.7Z"/>
    <path class="cls-7" d="M261.2,60.8c.3.3.6.7.8,1.1.9,1.7.3,3.5-1.2,4.1-1.2.4-2.6-.1-3.6-1.1-.3-.3-.6-.7-.8-1.1-.9-1.7-.3-3.6,1.2-4.1,1.2-.4,2.6.1,3.6,1.1Z"/>
    <path class="cls-13" d="M328.3,32.7c.2.2.4.4.5.7.6,1.1.2,2.3-.7,2.6-.7.2-1.7,0-2.3-.7-.2-.2-.4-.4-.5-.7-.5-1.1-.2-2.3.8-2.6.7-.2,1.6,0,2.3.7Z"/>
    <path class="cls-2" d="M331.5,40.8c.2.2.4.5.6.9.7,1.3.3,2.7-.9,3.1-.9.3-2,0-2.7-.9-.2-.2-.4-.5-.6-.8-.7-1.3-.3-2.7.9-3.1.9-.3,2,0,2.7.9Z"/>
    <path class="cls-26" d="M358.1,40c.6.6,1.1,1.3,1.5,2,1.7,3.3.7,6.7-2.2,7.7-2.2.7-4.9-.2-6.8-2.1-.6-.6-1.1-1.3-1.5-2.1-1.7-3.3-.7-6.7,2.2-7.7,2.2-.7,4.9.2,6.8,2.2Z"/>
    <path class="cls-3" d="M345.3,22.8c.5.5,1,1.2,1.3,1.9,1.5,3,.6,6.1-2,7-2,.7-4.4-.2-6.1-2-.5-.5-1-1.2-1.3-1.9-1.5-3-.6-6.1,2-7,2-.7,4.4.2,6.1,2Z"/>
    <path class="cls-15" d="M330.9,13c.5.5.9,1.1,1.2,1.8,1.4,2.8.6,5.7-1.9,6.5-1.9.6-4.1-.2-5.7-1.8-.5-.5-.9-1.1-1.2-1.8-1.4-2.8-.6-5.7,1.9-6.5,1.9-.6,4.1.2,5.7,1.8Z"/>
    <path class="cls-5" d="M365.4,57.7c.6.6,1.1,1.4,1.6,2.2,1.8,3.5.7,7.1-2.3,8.1-2.3.8-5.2-.2-7.2-2.3-.6-.6-1.1-1.4-1.5-2.2-1.8-3.5-.7-7.1,2.3-8.1,2.3-.8,5.2.2,7.1,2.3Z"/>
    <path class="cls-14" d="M365.8,77.6c.7.7,1.2,1.5,1.7,2.4,1.9,3.8.8,7.8-2.6,8.9-2.6.9-5.7-.2-7.8-2.5-.7-.7-1.2-1.5-1.7-2.4-1.9-3.8-.8-7.8,2.6-8.9,2.6-.9,5.7.2,7.8,2.5Z"/>
    <path class="cls-11" d="M358.2,93.5c.7.7,1.3,1.6,1.8,2.5,2,4,.8,8.3-2.7,9.5-2.7.9-6-.2-8.3-2.6-.7-.7-1.3-1.6-1.8-2.5-2-4-.8-8.3,2.7-9.4,2.7-.9,6,.2,8.3,2.6Z"/>
    <path class="cls-24" d="M343.6,105.3c.7.8,1.4,1.6,1.9,2.6,2.1,4.2.9,8.6-2.8,9.8-2.8.9-6.2-.2-8.6-2.7-.7-.8-1.4-1.7-1.9-2.6-2.1-4.2-.9-8.5,2.8-9.8,2.8-.9,6.2.2,8.6,2.7Z"/>
    <path class="cls-12" d="M301.6,105.4c.6.6,1.1,1.4,1.5,2.2,1.8,3.5.7,7.1-2.3,8.1-2.3.8-5.2-.2-7.1-2.3-.6-.6-1.1-1.4-1.6-2.2-1.8-3.5-.7-7.1,2.3-8.2,2.3-.8,5.2.2,7.2,2.3Z"/>
    <path class="cls-25" d="M321.7,109.5c.7.7,1.3,1.6,1.8,2.5,2,4,.8,8.3-2.7,9.4-2.7.9-6-.2-8.3-2.6-.7-.7-1.3-1.6-1.8-2.5-2-4-.8-8.3,2.7-9.4,2.7-.9,6,.2,8.3,2.6Z"/>
    <path class="cls-21" d="M285.5,96.6c.5.5,1,1.2,1.3,1.9,1.5,3,.6,6.1-2,7-2,.7-4.5-.2-6.2-2-.5-.5-1-1.2-1.3-1.9-1.5-3-.6-6.1,2-7,2-.7,4.5.2,6.2,2Z"/>
    <path class="cls-29" d="M323.8,27.9c.1.1.2.3.3.4.3.7.1,1.3-.4,1.5-.4.1-1,0-1.3-.4-.1-.1-.2-.2-.3-.4-.3-.7-.1-1.3.4-1.5.4-.2,1,0,1.3.4Z"/>
    <path class="cls-28" d="M316.3,7.9c.4.4.7.8,1,1.4,1.1,2.1.4,4.4-1.5,5-1.4.5-3.2-.1-4.4-1.4-.4-.4-.7-.8-1-1.4-1.1-2.1-.4-4.4,1.5-5,1.4-.5,3.2.1,4.4,1.4Z"/>
    <path class="cls-27" d="M303.4,5.9c.3.3.6.7.8,1.1.9,1.7.3,3.5-1.1,4-1.1.4-2.5-.1-3.5-1.1-.3-.3-.5-.7-.7-1-.9-1.7-.3-3.5,1.1-4,1.1-.4,2.5,0,3.5,1.1Z"/>
  </g>
</svg>