<svg width="120" height="120" viewBox="0 0 120 120" fill="none" xmlns="http://www.w3.org/2000/svg">
<g clip-path="url(#clip0_210_4)">
<path d="M90 15C93.9782 15 97.7936 16.5804 100.607 19.3934C103.42 22.2064 105 26.0218 105 30V90C105 93.9782 103.42 97.7936 100.607 100.607C97.7936 103.42 93.9782 105 90 105H30C26.0218 105 22.2064 103.42 19.3934 100.607C16.5804 97.7936 15 93.9782 15 90V30C15 26.0218 16.5804 22.2064 19.3934 19.3934C22.2064 16.5804 26.0218 15 30 15H90ZM90 25H30C28.6739 25 27.4021 25.5268 26.4645 26.4645C25.5268 27.4021 25 28.6739 25 30V90C25 91.3261 25.5268 92.5979 26.4645 93.5355C27.4021 94.4732 28.6739 95 30 95H90C91.3261 95 92.5979 94.4732 93.5355 93.5355C94.4732 92.5979 95 91.3261 95 90V30C95 28.6739 94.4732 27.4021 93.5355 26.4645C92.5979 25.5268 91.3261 25 90 25ZM40 50C41.2247 50.0002 42.4067 50.4498 43.3219 51.2636C44.237 52.0774 44.8217 53.1987 44.965 54.415L45 55V80C44.9986 81.2744 44.5106 82.5002 43.6358 83.4268C42.7609 84.3535 41.5652 84.9112 40.293 84.9859C39.0208 85.0605 37.7681 84.6466 36.7908 83.8287C35.8136 83.0107 35.1855 81.8505 35.035 80.585L35 80V55C35 53.6739 35.5268 52.4021 36.4645 51.4645C37.4021 50.5268 38.6739 50 40 50ZM55 45C56.171 44.9998 57.3049 45.4106 58.204 46.1608C59.1031 46.911 59.7104 47.9529 59.92 49.105C60.9271 48.5234 61.9672 48.0008 63.035 47.54C66.37 46.115 71.365 45.33 75.875 46.745C78.24 47.495 80.615 48.895 82.375 51.28C83.95 53.405 84.8 55.99 84.97 58.895L85 60V80C84.9986 81.2744 84.5106 82.5002 83.6358 83.4268C82.7609 84.3535 81.5652 84.9112 80.293 84.9859C79.0208 85.0605 77.7681 84.6466 76.7908 83.8287C75.8136 83.0107 75.1855 81.8505 75.035 80.585L75 80V60C75 58.35 74.6 57.58 74.34 57.225C73.9663 56.7613 73.4522 56.4314 72.875 56.285C71.135 55.735 68.63 56.025 66.965 56.735C64.465 57.805 62.175 59.485 60.615 61.04L60 61.7V80C59.9986 81.2744 59.5106 82.5002 58.6358 83.4268C57.7609 84.3535 56.5652 84.9112 55.293 84.9859C54.0208 85.0605 52.7681 84.6466 51.7908 83.8287C50.8136 83.0107 50.1855 81.8505 50.035 80.585L50 80V50C50 48.6739 50.5268 47.4021 51.4645 46.4645C52.4021 45.5268 53.6739 45 55 45ZM40 35C41.3261 35 42.5979 35.5268 43.5355 36.4645C44.4732 37.4021 45 38.6739 45 40C45 41.3261 44.4732 42.5979 43.5355 43.5355C42.5979 44.4732 41.3261 45 40 45C38.6739 45 37.4021 44.4732 36.4645 43.5355C35.5268 42.5979 35 41.3261 35 40C35 38.6739 35.5268 37.4021 36.4645 36.4645C37.4021 35.5268 38.6739 35 40 35Z" fill="white"/>
</g>
<defs>
<clipPath id="clip0_210_4">
<rect width="120" height="120" fill="white"/>
</clipPath>
</defs>
</svg>
