<svg width="113" height="117" viewBox="0 0 113 117" fill="none" xmlns="http://www.w3.org/2000/svg">
<path d="M10.0438 67.2517C10.4438 67.6517 10.7439 68.0517 10.9439 68.5517C11.9439 70.5517 11.3438 72.6517 9.54384 73.2517C8.24384 73.7517 6.54386 73.1517 5.44386 71.9517C5.04386 71.5517 4.74384 71.1517 4.54384 70.6517C3.54384 68.6517 4.14386 66.5517 5.84386 65.9517C7.24386 65.4517 8.84384 66.0517 10.0438 67.2517Z" fill="url(#paint0_linear_296_42)"/>
<path d="M77.4438 46.1516C77.7438 46.4516 78.0438 46.8516 78.2438 47.2516C79.1438 48.9516 78.5438 50.7516 77.1438 51.2516C76.0438 51.6516 74.6438 51.1516 73.6438 50.1516C73.3438 49.8516 73.1438 49.4516 72.9438 49.1516C72.0438 47.4516 72.6438 45.6516 74.0438 45.1516C75.1438 44.7516 76.5438 45.1516 77.5438 46.2516L77.4438 46.1516Z" fill="url(#paint1_linear_296_42)"/>
<path d="M74.9446 55.4514C75.3446 55.8514 75.6446 56.3514 75.9446 56.8514C77.0446 59.0514 76.3446 61.3514 74.4446 61.9514C72.9446 62.4514 71.2446 61.8514 69.9446 60.5514C69.5446 60.1514 69.2446 59.6514 68.9446 59.1514C67.8446 56.9514 68.5446 54.6514 70.4446 54.0514C71.9446 53.5514 73.6446 54.1514 74.9446 55.4514Z" fill="url(#paint2_linear_296_42)"/>
<path d="M67.9438 63.3515C68.4438 63.8515 68.8437 64.4515 69.2437 65.1515C70.7437 68.0515 69.8437 71.0515 67.3437 71.8515C65.4437 72.4515 63.0438 71.6515 61.4438 69.9515C60.9438 69.4515 60.5437 68.8515 60.1437 68.1515C58.6437 65.2515 59.5437 62.2515 62.0437 61.4515C63.9437 60.8515 66.3438 61.6515 67.9438 63.3515Z" fill="url(#paint3_linear_296_42)"/>
<path d="M4.04443 46.6516C4.24443 46.8516 4.44443 47.1516 4.64443 47.4516C5.34443 48.8516 4.94444 50.2516 3.74444 50.6516C2.84444 50.9516 1.74445 50.6516 0.944452 49.7516C0.744452 49.5516 0.444446 49.2516 0.344446 48.8516C-0.355554 47.4516 0.0444399 46.0516 1.24444 45.6516C2.14444 45.3516 3.34443 45.6516 4.14443 46.5516L4.04443 46.6516Z" fill="url(#paint4_linear_296_42)"/>
<path d="M37.3452 1.95137C37.5452 2.15137 37.7452 2.45137 37.9452 2.75137C38.6452 4.15137 38.2452 5.55137 37.0452 5.95137C36.1452 6.25137 35.0452 5.95137 34.2452 5.05137C34.0452 4.85137 33.8452 4.55137 33.6452 4.15137C32.9452 2.75137 33.3452 1.35137 34.5452 0.951367C35.4452 0.651367 36.5452 0.951367 37.3452 1.85137V1.95137Z" fill="url(#paint5_linear_296_42)"/>
<path d="M29.7435 5.05141C30.0435 5.35141 30.2435 5.7514 30.4435 6.1514C31.3435 7.8514 30.7435 9.6514 29.3435 10.1514C28.2435 10.5514 26.8435 10.0514 25.8435 9.05141C25.5435 8.75141 25.2435 8.35141 25.1435 7.95141C24.3435 6.25141 24.8435 4.4514 26.2435 3.9514C27.3435 3.5514 28.7435 3.95141 29.7435 5.05141Z" fill="url(#paint6_linear_296_42)"/>
<path d="M21.5449 10.7514C21.9449 11.1514 22.3449 11.7514 22.6449 12.3514C23.8449 14.8514 23.1449 17.4514 20.9449 18.1514C19.2449 18.7514 17.2449 18.0514 15.8449 16.5514C15.4449 16.1514 15.0449 15.5514 14.7449 14.9514C13.4449 12.4514 14.2449 9.95139 16.3449 9.15139C18.0449 8.65139 20.0449 9.25139 21.4449 10.7514H21.5449Z" fill="url(#paint7_linear_296_42)"/>
<path d="M16.9449 23.1515C17.5449 23.7515 18.0449 24.4515 18.4449 25.2515C20.1449 28.5515 19.1449 32.0515 16.2449 33.0515C14.0449 33.8515 11.3449 32.8515 9.44491 30.8515C8.84491 30.2515 8.34491 29.5515 7.94491 28.7515C6.24491 25.4515 7.24489 21.9515 10.1449 20.9515C12.3449 20.2515 15.0449 21.1515 16.9449 23.1515Z" fill="url(#paint8_linear_296_42)"/>
<path d="M4.24398 39.4517C4.44398 39.6517 4.54398 39.8517 4.74398 40.0517C5.24398 41.0517 4.94397 42.1517 4.04397 42.4517C3.34397 42.6517 2.544 42.4517 1.944 41.7517C1.744 41.5517 1.644 41.3517 1.444 41.1517C0.943996 40.1517 1.24398 39.0517 2.14398 38.7517C2.84398 38.5517 3.64398 38.7517 4.24398 39.4517Z" fill="url(#paint9_linear_296_42)"/>
<path d="M21.6447 40.7518C22.2447 41.4518 22.8447 42.1518 23.2447 43.0518C25.0447 46.7518 23.9447 50.5518 20.7447 51.6518C18.2447 52.4518 15.3447 51.4518 13.1447 49.2518C12.5447 48.5518 11.9447 47.8518 11.5447 46.9518C9.64467 43.2518 10.8447 39.4518 14.0447 38.3518C16.5447 37.5518 19.5447 38.5518 21.6447 40.7518Z" fill="url(#paint10_linear_296_42)"/>
<path d="M53.9441 65.9512C54.6441 66.6512 55.1441 67.4512 55.6441 68.2512C57.5441 71.9512 56.3441 75.8512 53.1441 76.9512C50.6441 77.7512 47.6441 76.7512 45.4441 74.5512C44.7441 73.8512 44.2441 73.0512 43.7441 72.2512C41.8441 68.5512 42.9441 64.6512 46.2441 63.5512C48.7441 62.6512 51.7441 63.7512 53.9441 65.9512Z" fill="url(#paint11_linear_296_42)"/>
<path d="M34.3447 56.3514C35.1447 57.1514 35.7447 58.0514 36.3447 59.1514C38.5447 63.5514 37.2447 68.2514 33.3447 69.5514C30.3447 70.5514 26.7447 69.2514 24.2447 66.6514C23.4447 65.8514 22.8447 64.9514 22.2447 63.8514C20.0447 59.4514 21.3447 54.8514 25.2447 53.4514C28.2447 52.4514 31.8447 53.7514 34.3447 56.3514Z" fill="url(#paint12_linear_296_42)"/>
<path d="M17.5437 79.2514C17.9437 79.7514 18.3437 80.2514 18.6437 80.8514C19.9437 83.3514 19.1437 86.0514 16.9437 86.8514C15.2437 87.4514 13.1437 86.7514 11.7437 85.1514C11.3437 84.6514 10.9437 84.1514 10.6437 83.5514C9.3437 81.0514 10.1437 78.3514 12.3437 77.5514C14.0437 76.9514 16.1437 77.7514 17.5437 79.2514Z" fill="url(#paint13_linear_296_42)"/>
<path d="M5.44358 56.0516C5.74358 56.3516 6.04357 56.7516 6.24357 57.1516C7.14357 58.8516 6.54356 60.6516 5.04356 61.2516C3.84356 61.6516 2.44358 61.1516 1.44358 60.1516C1.14358 59.8516 0.843562 59.4516 0.643562 59.0516C-0.256438 57.3516 0.343574 55.4516 1.84357 54.9516C3.04357 54.5516 4.44358 55.0516 5.44358 56.0516Z" fill="url(#paint14_linear_296_42)"/>
<path d="M72.5442 27.9517C72.7442 28.1517 72.9442 28.3517 73.0442 28.6517C73.6442 29.7517 73.2442 30.9517 72.3442 31.2517C71.6442 31.4517 70.6442 31.2517 70.0442 30.5517C69.8442 30.3517 69.6442 30.1517 69.5442 29.8517C69.0442 28.7517 69.3442 27.5517 70.3442 27.2517C71.0442 27.0517 71.9442 27.2517 72.6442 27.9517H72.5442Z" fill="url(#paint15_linear_296_42)"/>
<path d="M75.7452 36.0517C75.9452 36.2517 76.1452 36.5517 76.3452 36.9517C77.0452 38.2517 76.6452 39.6517 75.4452 40.0517C74.5452 40.3517 73.4452 40.0517 72.7452 39.1517C72.5452 38.9517 72.3452 38.6517 72.1452 38.3517C71.4452 37.0517 71.8452 35.6517 73.0452 35.2517C73.9452 34.9517 75.0452 35.2517 75.7452 36.1517V36.0517Z" fill="url(#paint16_linear_296_42)"/>
<path d="M102.345 35.2516C102.945 35.8516 103.445 36.5516 103.845 37.2516C105.545 40.5516 104.545 43.9516 101.645 44.9516C99.4453 45.6516 96.7453 44.7516 94.8453 42.8516C94.2453 42.2516 93.7453 41.5516 93.3453 40.7516C91.6453 37.4516 92.6453 34.0516 95.5453 33.0516C97.7453 32.3516 100.445 33.2516 102.345 35.2516Z" fill="url(#paint17_linear_296_42)"/>
<path d="M89.5448 18.0516C90.0448 18.5516 90.5448 19.2516 90.8448 19.9516C92.3448 22.9516 91.4448 26.0516 88.8448 26.9516C86.8448 27.6516 84.4448 26.7516 82.7448 24.9516C82.2448 24.4516 81.7448 23.7516 81.4448 23.0516C79.9448 20.0516 80.8448 16.9516 83.4448 16.0516C85.4448 15.3516 87.8448 16.2516 89.5448 18.0516Z" fill="url(#paint18_linear_296_42)"/>
<path d="M75.1446 8.25165C75.6446 8.75165 76.0446 9.35165 76.3446 10.0517C77.7446 12.8517 76.9446 15.7517 74.4446 16.5517C72.5446 17.1517 70.3446 16.3517 68.7446 14.7517C68.2446 14.2517 67.8446 13.6517 67.5446 12.9517C66.1446 10.1517 66.9446 7.25165 69.4446 6.45165C71.3446 5.85165 73.5446 6.65165 75.1446 8.25165Z" fill="url(#paint19_linear_296_42)"/>
<path d="M109.644 52.9518C110.244 53.5518 110.744 54.3518 111.244 55.1518C113.044 58.6518 111.944 62.2518 108.944 63.2518C106.644 64.0518 103.744 63.0518 101.744 60.9518C101.144 60.3518 100.644 59.5518 100.244 58.7518C98.4436 55.2518 99.5436 51.6518 102.544 50.6518C104.844 49.8518 107.744 50.8518 109.644 52.9518Z" fill="url(#paint20_linear_296_42)"/>
<path d="M110.045 72.8516C110.745 73.5516 111.245 74.3516 111.745 75.2516C113.645 79.0516 112.545 83.0516 109.145 84.1516C106.545 85.0516 103.445 83.9516 101.345 81.6516C100.645 80.9516 100.145 80.1516 99.6448 79.2516C97.7448 75.4516 98.8448 71.4516 102.245 70.3516C104.845 69.4516 107.945 70.5516 110.045 72.8516Z" fill="url(#paint21_linear_296_42)"/>
<path d="M102.444 88.7517C103.144 89.4517 103.744 90.3517 104.244 91.2517C106.244 95.2517 105.043 99.5517 101.543 100.752C98.8435 101.652 95.5435 100.552 93.2435 98.1517C92.5435 97.4517 91.9435 96.5517 91.4435 95.6517C89.4435 91.6517 90.6435 87.3517 94.1435 86.2517C96.8435 85.3517 100.144 86.4517 102.444 88.8517V88.7517Z" fill="url(#paint22_linear_296_42)"/>
<path d="M87.8437 100.551C88.5437 101.351 89.2437 102.151 89.7437 103.151C91.8437 107.351 90.6437 111.751 86.9437 112.951C84.1437 113.851 80.7437 112.751 78.3437 110.251C77.6437 109.451 76.9437 108.551 76.4437 107.651C74.3437 103.451 75.5437 99.1515 79.2437 97.8515C82.0437 96.9515 85.4437 98.0515 87.8437 100.551Z" fill="url(#paint23_linear_296_42)"/>
<path d="M45.8451 100.651C46.4451 101.251 46.9451 102.051 47.3451 102.851C49.1451 106.351 48.0451 109.951 45.0451 110.951C42.7451 111.751 39.8451 110.751 37.9451 108.651C37.3451 108.051 36.8451 107.251 36.3451 106.451C34.5451 102.951 35.6451 99.3515 38.6451 98.2515C40.9451 97.4515 43.8451 98.4515 45.8451 100.551V100.651Z" fill="url(#paint24_linear_296_42)"/>
<path d="M65.9435 104.752C66.6435 105.452 67.2435 106.352 67.7435 107.252C69.7435 111.252 68.5435 115.552 65.0435 116.652C62.3435 117.552 59.0435 116.452 56.7435 114.052C56.0435 113.352 55.4435 112.452 54.9435 111.552C52.9435 107.552 54.1435 103.252 57.6435 102.152C60.3435 101.252 63.6435 102.352 65.9435 104.752Z" fill="url(#paint25_linear_296_42)"/>
<path d="M29.7445 91.8514C30.2445 92.3514 30.7445 93.0514 31.0445 93.7514C32.5445 96.7514 31.6445 99.8514 29.0445 100.751C27.0445 101.451 24.5445 100.551 22.8445 98.7514C22.3445 98.2514 21.8445 97.5514 21.5445 96.8514C20.0445 93.8514 20.9445 90.7514 23.5445 89.8514C25.5445 89.1514 28.0445 90.0514 29.7445 91.8514Z" fill="url(#paint26_linear_296_42)"/>
<path d="M68.0441 23.1518C68.1441 23.2518 68.2441 23.4518 68.3441 23.5518C68.6441 24.2518 68.4441 24.8518 67.9441 25.0518C67.5441 25.1518 66.9441 25.0518 66.6441 24.6518C66.5441 24.5518 66.4441 24.4518 66.3441 24.2518C66.0441 23.5518 66.2441 22.9518 66.7441 22.7518C67.1441 22.5518 67.7441 22.7518 68.0441 23.1518Z" fill="url(#paint27_linear_296_42)"/>
<path d="M60.5438 3.15164C60.9438 3.55164 61.2438 3.95164 61.5438 4.55164C62.6438 6.65164 61.9438 8.95164 60.0438 9.55164C58.6438 10.0516 56.8438 9.45164 55.6438 8.15164C55.2438 7.75164 54.9438 7.35164 54.6438 6.75164C53.5438 4.65164 54.2438 2.35164 56.1438 1.75164C57.5438 1.25164 59.3438 1.85164 60.5438 3.15164Z" fill="url(#paint28_linear_296_42)"/>
<path d="M47.645 1.1516C47.945 1.4516 48.245 1.8516 48.445 2.2516C49.345 3.9516 48.745 5.7516 47.345 6.2516C46.245 6.6516 44.845 6.1516 43.845 5.1516C43.545 4.8516 43.345 4.4516 43.145 4.1516C42.245 2.4516 42.845 0.6516 44.245 0.1516C45.345 -0.2484 46.745 0.1516 47.745 1.2516L47.645 1.1516Z" fill="url(#paint29_linear_296_42)"/>
<defs>
<linearGradient id="paint0_linear_296_42" x1="2.84384" y1="61.0517" x2="42.3438" y2="129.452" gradientUnits="userSpaceOnUse">
<stop stop-color="#8D0E1B"/>
<stop offset="1" stop-color="#F15A29"/>
</linearGradient>
<linearGradient id="paint1_linear_296_42" x1="62.9438" y1="26.3516" x2="102.544" y2="94.7516" gradientUnits="userSpaceOnUse">
<stop stop-color="#8D0E1B"/>
<stop offset="1" stop-color="#F15A29"/>
</linearGradient>
<linearGradient id="paint2_linear_296_42" x1="56.3446" y1="30.1514" x2="95.9446" y2="98.5514" gradientUnits="userSpaceOnUse">
<stop stop-color="#8D0E1B"/>
<stop offset="1" stop-color="#F15A29"/>
</linearGradient>
<linearGradient id="paint3_linear_296_42" x1="46.7437" y1="35.6515" x2="86.3437" y2="104.052" gradientUnits="userSpaceOnUse">
<stop stop-color="#8D0E1B"/>
<stop offset="1" stop-color="#F15A29"/>
</linearGradient>
<linearGradient id="paint4_linear_296_42" x1="8.14443" y1="57.9516" x2="47.6445" y2="126.452" gradientUnits="userSpaceOnUse">
<stop stop-color="#8D0E1B"/>
<stop offset="1" stop-color="#F15A29"/>
</linearGradient>
<linearGradient id="paint5_linear_296_42" x1="52.4453" y1="32.3514" x2="92.0452" y2="100.851" gradientUnits="userSpaceOnUse">
<stop stop-color="#8D0E1B"/>
<stop offset="1" stop-color="#F15A29"/>
</linearGradient>
<linearGradient id="paint6_linear_296_42" x1="44.9436" y1="36.7514" x2="84.4435" y2="105.151" gradientUnits="userSpaceOnUse">
<stop stop-color="#8D0E1B"/>
<stop offset="1" stop-color="#F15A29"/>
</linearGradient>
<linearGradient id="paint7_linear_296_42" x1="35.2449" y1="42.3514" x2="74.8449" y2="110.751" gradientUnits="userSpaceOnUse">
<stop stop-color="#8D0E1B"/>
<stop offset="1" stop-color="#F15A29"/>
</linearGradient>
<linearGradient id="paint8_linear_296_42" x1="25.3449" y1="48.0515" x2="64.9449" y2="116.452" gradientUnits="userSpaceOnUse">
<stop stop-color="#8D0E1B"/>
<stop offset="1" stop-color="#F15A29"/>
</linearGradient>
<linearGradient id="paint9_linear_296_42" x1="11.844" y1="55.8517" x2="51.344" y2="124.252" gradientUnits="userSpaceOnUse">
<stop stop-color="#8D0E1B"/>
<stop offset="1" stop-color="#F15A29"/>
</linearGradient>
<linearGradient id="paint10_linear_296_42" x1="20.7447" y1="50.7518" x2="60.2447" y2="119.152" gradientUnits="userSpaceOnUse">
<stop stop-color="#8D0E1B"/>
<stop offset="1" stop-color="#F15A29"/>
</linearGradient>
<linearGradient id="paint11_linear_296_42" x1="33.9441" y1="43.0512" x2="73.5441" y2="111.551" gradientUnits="userSpaceOnUse">
<stop stop-color="#8D0E1B"/>
<stop offset="1" stop-color="#F15A29"/>
</linearGradient>
<linearGradient id="paint12_linear_296_42" x1="22.5447" y1="49.6514" x2="62.0447" y2="118.151" gradientUnits="userSpaceOnUse">
<stop stop-color="#8D0E1B"/>
<stop offset="1" stop-color="#F15A29"/>
</linearGradient>
<linearGradient id="paint13_linear_296_42" x1="2.5437" y1="61.2514" x2="42.1437" y2="129.651" gradientUnits="userSpaceOnUse">
<stop stop-color="#8D0E1B"/>
<stop offset="1" stop-color="#F15A29"/>
</linearGradient>
<linearGradient id="paint14_linear_296_42" x1="4.64357" y1="60.0516" x2="44.1436" y2="128.452" gradientUnits="userSpaceOnUse">
<stop stop-color="#8D0E1B"/>
<stop offset="1" stop-color="#F15A29"/>
</linearGradient>
<linearGradient id="paint15_linear_296_42" x1="67.9442" y1="23.4517" x2="107.444" y2="91.8517" gradientUnits="userSpaceOnUse">
<stop stop-color="#8D0E1B"/>
<stop offset="1" stop-color="#F15A29"/>
</linearGradient>
<linearGradient id="paint16_linear_296_42" x1="66.5452" y1="24.2517" x2="106.045" y2="92.7518" gradientUnits="userSpaceOnUse">
<stop stop-color="#8D0E1B"/>
<stop offset="1" stop-color="#F15A29"/>
</linearGradient>
<linearGradient id="paint17_linear_296_42" x1="84.1453" y1="14.0516" x2="123.745" y2="82.5516" gradientUnits="userSpaceOnUse">
<stop stop-color="#8D0E1B"/>
<stop offset="1" stop-color="#F15A29"/>
</linearGradient>
<linearGradient id="paint18_linear_296_42" x1="82.4448" y1="15.0516" x2="121.945" y2="83.5515" gradientUnits="userSpaceOnUse">
<stop stop-color="#8D0E1B"/>
<stop offset="1" stop-color="#F15A29"/>
</linearGradient>
<linearGradient id="paint19_linear_296_42" x1="76.1446" y1="18.6516" x2="115.745" y2="87.1517" gradientUnits="userSpaceOnUse">
<stop stop-color="#8D0E1B"/>
<stop offset="1" stop-color="#F15A29"/>
</linearGradient>
<linearGradient id="paint20_linear_296_42" x1="81.7436" y1="15.4519" x2="121.244" y2="83.9519" gradientUnits="userSpaceOnUse">
<stop stop-color="#8D0E1B"/>
<stop offset="1" stop-color="#F15A29"/>
</linearGradient>
<linearGradient id="paint21_linear_296_42" x1="72.8448" y1="20.5516" x2="112.445" y2="89.0516" gradientUnits="userSpaceOnUse">
<stop stop-color="#8D0E1B"/>
<stop offset="1" stop-color="#F15A29"/>
</linearGradient>
<linearGradient id="paint22_linear_296_42" x1="60.0435" y1="27.9517" x2="99.6436" y2="96.4517" gradientUnits="userSpaceOnUse">
<stop stop-color="#8D0E1B"/>
<stop offset="1" stop-color="#F15A29"/>
</linearGradient>
<linearGradient id="paint23_linear_296_42" x1="43.8437" y1="37.3515" x2="83.3437" y2="105.851" gradientUnits="userSpaceOnUse">
<stop stop-color="#8D0E1B"/>
<stop offset="1" stop-color="#F15A29"/>
</linearGradient>
<linearGradient id="paint24_linear_296_42" x1="13.2451" y1="55.0515" x2="52.7451" y2="123.551" gradientUnits="userSpaceOnUse">
<stop stop-color="#8D0E1B"/>
<stop offset="1" stop-color="#F15A29"/>
</linearGradient>
<linearGradient id="paint25_linear_296_42" x1="25.7435" y1="47.7516" x2="65.3436" y2="116.252" gradientUnits="userSpaceOnUse">
<stop stop-color="#8D0E1B"/>
<stop offset="1" stop-color="#F15A29"/>
</linearGradient>
<linearGradient id="paint26_linear_296_42" x1="5.54446" y1="59.4514" x2="45.1445" y2="127.951" gradientUnits="userSpaceOnUse">
<stop stop-color="#8D0E1B"/>
<stop offset="1" stop-color="#F15A29"/>
</linearGradient>
<linearGradient id="paint27_linear_296_42" x1="67.2441" y1="23.8518" x2="106.744" y2="92.1518" gradientUnits="userSpaceOnUse">
<stop stop-color="#8D0E1B"/>
<stop offset="1" stop-color="#F15A29"/>
</linearGradient>
<linearGradient id="paint28_linear_296_42" x1="68.2438" y1="23.2516" x2="107.844" y2="91.6516" gradientUnits="userSpaceOnUse">
<stop stop-color="#8D0E1B"/>
<stop offset="1" stop-color="#F15A29"/>
</linearGradient>
<linearGradient id="paint29_linear_296_42" x1="60.045" y1="27.9516" x2="99.545" y2="96.4517" gradientUnits="userSpaceOnUse">
<stop stop-color="#8D0E1B"/>
<stop offset="1" stop-color="#F15A29"/>
</linearGradient>
</defs>
</svg>
