<svg width="20" height="20" viewBox="0 0 40 40" fill="none" xmlns="http://www.w3.org/2000/svg">
<path d="M27.3833 9.7303V19.0136C27.1438 20.7842 26.2703 22.4078 24.9249 23.5835C23.5795 24.7591 21.8534 25.407 20.0667 25.407C18.28 25.407 16.5539 24.7591 15.2085 23.5835C13.863 22.4078 12.9896 20.7842 12.75 19.0136V9.7303C12.9896 7.95973 13.863 6.33609 15.2085 5.16045C16.5539 3.9848 18.28 3.33691 20.0667 3.33691C21.8534 3.33691 23.5795 3.9848 24.9249 5.16045C26.2703 6.33609 27.1438 7.95973 27.3833 9.7303Z" fill="#F45415"/>
<path d="M21.3162 29.9963V34.163H26.1328C26.4644 34.163 26.7823 34.2947 27.0167 34.5291C27.2511 34.7635 27.3828 35.0814 27.3828 35.413C27.3828 35.7445 27.2511 36.0624 27.0167 36.2968C26.7823 36.5313 26.4644 36.663 26.1328 36.663H13.9995C13.668 36.663 13.35 36.5313 13.1156 36.2968C12.8812 36.0624 12.7495 35.7445 12.7495 35.413C12.7495 35.0814 12.8812 34.7635 13.1156 34.5291C13.35 34.2947 13.668 34.163 13.9995 34.163H18.7495V29.9963C15.6995 29.6939 12.8713 28.2667 10.8161 25.9928C8.761 23.7189 7.62618 20.7613 7.63284 17.6963C7.63284 17.3648 7.76454 17.0468 7.99896 16.8124C8.23338 16.578 8.55132 16.4463 8.88284 16.4463C9.21436 16.4463 9.5323 16.578 9.76673 16.8124C10.0011 17.0468 10.1328 17.3648 10.1328 17.6963C10.1328 20.3131 11.1724 22.8227 13.0227 24.6731C14.8731 26.5234 17.3827 27.563 19.9995 27.563C22.6163 27.563 25.1259 26.5234 26.9763 24.6731C28.8267 22.8227 29.8662 20.3131 29.8662 17.6963C29.8662 17.3648 29.9979 17.0468 30.2323 16.8124C30.4667 16.578 30.7847 16.4463 31.1162 16.4463C31.4477 16.4463 31.7656 16.578 32.0001 16.8124C32.2345 17.0468 32.3662 17.3648 32.3662 17.6963C32.3728 20.7613 31.238 23.7189 29.1829 25.9928C27.1277 28.2667 24.2996 29.6939 21.2495 29.9963H21.3162Z" fill="#F45415"/>
</svg>
