<svg width="40" height="20" viewBox="0 0 40 20" fill="none" xmlns="http://www.w3.org/2000/svg">
<path d="M33.6917 4.86466V9.50633C33.5719 10.3916 33.1352 11.2034 32.4624 11.7913C31.7897 12.3791 30.9267 12.703 30.0333 12.703C29.14 12.703 28.2769 12.3791 27.6042 11.7913C26.9315 11.2034 26.4948 10.3916 26.375 9.50633V4.86466C26.4948 3.97938 26.9315 3.16756 27.6042 2.57974C28.2769 1.99191 29.14 1.66797 30.0333 1.66797C30.9267 1.66797 31.7897 1.99191 32.4624 2.57974C33.1352 3.16756 33.5719 3.97938 33.6917 4.86466Z" fill="#F45415"/>
<path d="M30.6581 14.9986V17.082H33.0664C33.2322 17.082 33.3912 17.1478 33.5084 17.265C33.6256 17.3822 33.6914 17.5412 33.6914 17.707C33.6914 17.8727 33.6256 18.0317 33.5084 18.1489C33.3912 18.2661 33.2322 18.332 33.0664 18.332H26.9998C26.834 18.332 26.675 18.2661 26.5578 18.1489C26.4406 18.0317 26.3748 17.8727 26.3748 17.707C26.3748 17.5412 26.4406 17.3822 26.5578 17.265C26.675 17.1478 26.834 17.082 26.9998 17.082H29.3748V14.9986C27.8497 14.8475 26.4356 14.1339 25.4081 12.9969C24.3805 11.86 23.8131 10.3811 23.8164 8.84863C23.8164 8.68287 23.8823 8.5239 23.9995 8.40669C24.1167 8.28948 24.2757 8.22363 24.4414 8.22363C24.6072 8.22363 24.7662 8.28948 24.8834 8.40669C25.0006 8.5239 25.0664 8.68287 25.0664 8.84863C25.0664 10.157 25.5862 11.4118 26.5114 12.337C27.4365 13.2622 28.6914 13.782 29.9998 13.782C31.3082 13.782 32.563 13.2622 33.4881 12.337C34.4133 11.4118 34.9331 10.157 34.9331 8.84863C34.9331 8.68287 34.9989 8.5239 35.1161 8.40669C35.2334 8.28948 35.3923 8.22363 35.5581 8.22363C35.7238 8.22363 35.8828 8.28948 36 8.40669C36.1172 8.5239 36.1831 8.68287 36.1831 8.84863C36.1864 10.3811 35.619 11.86 34.5914 12.9969C33.5639 14.1339 32.1498 14.8475 30.6248 14.9986H30.6581Z" fill="#F45415"/>
</svg>
