<svg width="80" height="40" viewBox="0 0 80 40" fill="none" xmlns="http://www.w3.org/2000/svg">
<path d="M27.3833 9.7303V19.0136C27.1438 20.7842 26.2703 22.4078 24.9249 23.5835C23.5795 24.7591 21.8534 25.407 20.0667 25.407C18.28 25.407 16.5539 24.7591 15.2085 23.5835C13.863 22.4078 12.9896 20.7842 12.75 19.0136V9.7303C12.9896 7.95973 13.863 6.33609 15.2085 5.16045C16.5539 3.9848 18.28 3.33691 20.0667 3.33691C21.8534 3.33691 23.5795 3.9848 24.9249 5.16045C26.2703 6.33609 27.1438 7.95973 27.3833 9.7303Z" fill="#F45415"/>
<path d="M21.3162 29.9963V34.163H26.1328C26.4644 34.163 26.7823 34.2947 27.0167 34.5291C27.2511 34.7635 27.3828 35.0814 27.3828 35.413C27.3828 35.7445 27.2511 36.0624 27.0167 36.2968C26.7823 36.5313 26.4644 36.663 26.1328 36.663H13.9995C13.668 36.663 13.35 36.5313 13.1156 36.2968C12.8812 36.0624 12.7495 35.7445 12.7495 35.413C12.7495 35.0814 12.8812 34.7635 13.1156 34.5291C13.35 34.2947 13.668 34.163 13.9995 34.163H18.7495V29.9963C15.6995 29.6939 12.8713 28.2667 10.8161 25.9928C8.761 23.7189 7.62618 20.7613 7.63284 17.6963C7.63284 17.3648 7.76454 17.0468 7.99896 16.8124C8.23338 16.578 8.55132 16.4463 8.88284 16.4463C9.21436 16.4463 9.53231 16.578 9.76673 16.8124C10.0011 17.0468 10.1328 17.3648 10.1328 17.6963C10.1328 20.3131 11.1724 22.8227 13.0227 24.6731C14.8731 26.5234 17.3827 27.563 19.9995 27.563C22.6163 27.563 25.1259 26.5234 26.9763 24.6731C28.8267 22.8227 29.8662 20.3131 29.8662 17.6963C29.8662 17.3648 29.9979 17.0468 30.2323 16.8124C30.4667 16.578 30.7847 16.4463 31.1162 16.4463C31.4477 16.4463 31.7656 16.578 32.0001 16.8124C32.2345 17.0468 32.3662 17.3648 32.3662 17.6963C32.3728 20.7613 31.238 23.7189 29.1829 25.9928C27.1277 28.2667 24.2996 29.6939 21.2495 29.9963H21.3162Z" fill="#F45415"/>
<path d="M76.5181 11.9035C75.9341 9.89795 74.8535 8.07214 73.3765 6.5951C71.8994 5.11805 70.0736 4.03751 68.0681 3.4535C67.5215 3.31237 66.948 3.31237 66.4014 3.4535C65.8517 3.6131 65.3523 3.91157 64.9514 4.32017L61.2348 8.0535L45.3348 23.9368C44.8341 24.458 44.5079 25.122 44.4014 25.8368L43.3848 32.7702C43.3064 33.289 43.3463 33.8189 43.5014 34.3202C43.6714 34.8202 43.9514 35.2752 44.3181 35.6535C44.6914 36.0235 45.1414 36.3068 45.6348 36.4868C45.9798 36.6002 46.3398 36.6552 46.7014 36.6535H47.1848L54.1181 35.6368C54.8419 35.5439 55.5153 35.216 56.0348 34.7035L71.9514 18.7868L75.6514 15.1035C76.0685 14.6956 76.3711 14.1853 76.529 13.6238C76.687 13.0622 76.6947 12.469 76.5514 11.9035H76.5181ZM74.0848 12.9535C74.0394 13.0936 73.9591 13.2198 73.8514 13.3202L71.0348 16.1368L63.8348 8.9535L66.6848 6.1035C66.7942 6.0028 66.9254 5.92866 67.0681 5.88684H67.4514C69.0293 6.35617 70.4653 7.21157 71.6293 8.37561C72.7934 9.53966 73.6488 10.9756 74.1181 12.5535C74.1356 12.6877 74.1242 12.8241 74.0848 12.9535Z" fill="#F45415"/>
</svg>
