<svg width="120" height="120" viewBox="0 0 120 120" fill="none" xmlns="http://www.w3.org/2000/svg">
<path d="M60.005 45C56.0268 45 52.2114 46.5804 49.3984 49.3934C46.5854 52.2064 45.005 56.0218 45.005 60C45.005 63.9782 46.5854 67.7936 49.3984 70.6066C52.2114 73.4196 56.0268 75 60.005 75C63.9832 75 67.7986 73.4196 70.6116 70.6066C73.4246 67.7936 75.005 63.9782 75.005 60C75.005 56.0218 73.4246 52.2064 70.6116 49.3934C67.7986 46.5804 63.9832 45 60.005 45ZM60.005 35C66.6354 35 72.9943 37.6339 77.6827 42.3223C82.3711 47.0107 85.005 53.3696 85.005 60C85.005 66.6304 82.3711 72.9893 77.6827 77.6777C72.9943 82.3661 66.6354 85 60.005 85C53.3746 85 47.0157 82.3661 42.3273 77.6777C37.6389 72.9893 35.005 66.6304 35.005 60C35.005 53.3696 37.6389 47.0107 42.3273 42.3223C47.0157 37.6339 53.3746 35 60.005 35ZM92.505 33.75C92.505 35.4076 91.8465 36.9973 90.6744 38.1694C89.5023 39.3415 87.9126 40 86.255 40C84.5974 40 83.0077 39.3415 81.8356 38.1694C80.6635 36.9973 80.005 35.4076 80.005 33.75C80.005 32.0924 80.6635 30.5027 81.8356 29.3306C83.0077 28.1585 84.5974 27.5 86.255 27.5C87.9126 27.5 89.5023 28.1585 90.6744 29.3306C91.8465 30.5027 92.505 32.0924 92.505 33.75ZM60.005 20C47.635 20 45.615 20.035 39.86 20.29C35.94 20.475 33.31 21 30.87 21.95C28.8292 22.7019 26.9836 23.9032 25.47 25.465C23.9064 26.9781 22.7033 28.8237 21.95 30.865C21 33.315 20.475 35.94 20.295 39.855C20.035 45.375 20 47.305 20 60C20 72.375 20.035 74.39 20.29 80.145C20.475 84.06 21 86.695 21.945 89.13C22.795 91.305 23.795 92.87 25.455 94.53C27.14 96.21 28.705 97.215 30.855 98.045C33.325 99 35.955 99.53 39.855 99.71C45.375 99.97 47.305 100 60 100C72.375 100 74.39 99.965 80.145 99.71C84.055 99.525 86.685 99 89.13 98.055C91.1708 97.3031 93.0164 96.1018 94.53 94.54C96.215 92.86 97.22 91.295 98.05 89.14C99 86.68 99.53 84.05 99.71 80.14C99.97 74.625 100 72.69 100 60C100 47.63 99.965 45.61 99.71 39.855C99.525 35.945 98.995 33.305 98.05 30.865C97.2982 28.8242 96.0968 26.9786 94.535 25.465C93.0219 23.9014 91.1763 22.6983 89.135 21.945C86.685 20.995 84.055 20.47 80.145 20.29C74.63 20.03 72.7 20 60 20M60 10C73.585 10 75.28 10.05 80.615 10.3C85.935 10.55 89.565 11.385 92.75 12.625C96.05 13.895 98.83 15.615 101.61 18.39C104.153 20.8887 106.121 23.9124 107.375 27.25C108.61 30.435 109.45 34.065 109.7 39.39C109.935 44.72 110 46.415 110 60C110 73.585 109.95 75.28 109.7 80.61C109.45 85.94 108.61 89.56 107.375 92.75C106.121 96.0876 104.153 99.1113 101.61 101.61C99.1113 104.153 96.0876 106.121 92.75 107.375C89.565 108.61 85.935 109.45 80.615 109.7C75.28 109.935 73.585 110 60 110C46.415 110 44.72 109.95 39.385 109.7C34.065 109.45 30.44 108.61 27.25 107.375C23.9124 106.121 20.8887 104.153 18.39 101.61C15.8465 99.1113 13.8791 96.0876 12.625 92.75C11.385 89.565 10.55 85.935 10.3 80.61C10.06 75.28 10 73.585 10 60C10 46.415 10.05 44.72 10.3 39.39C10.55 34.06 11.385 30.44 12.625 27.25C13.8791 23.9124 15.8465 20.8887 18.39 18.39C20.8887 15.8465 23.9124 13.8791 27.25 12.625C30.435 11.385 34.06 10.55 39.385 10.3C44.725 10.065 46.42 10 60.005 10" fill="white"/>
</svg>
