<svg width="120" height="120" viewBox="0 0 120 120" fill="none" xmlns="http://www.w3.org/2000/svg">
<path d="M112.5 59.6719C112.5 59.4141 112.5 59.1211 112.488 58.7812C112.477 57.832 112.453 56.7656 112.43 55.6289C112.336 52.3594 112.172 49.1016 111.914 46.0312C111.562 41.8008 111.047 38.2734 110.344 35.625C109.602 32.8611 108.147 30.3404 106.126 28.3148C104.104 26.2892 101.587 24.8296 98.8242 24.082C95.5078 23.1914 89.0156 22.6406 79.875 22.3008C75.5273 22.1367 70.875 22.0312 66.2227 21.9727C64.5937 21.9492 63.082 21.9375 61.7227 21.9258H58.2773C56.918 21.9375 55.4062 21.9492 53.7773 21.9727C49.125 22.0312 44.4727 22.1367 40.125 22.3008C30.9844 22.6523 24.4805 23.2031 21.1758 24.082C18.4125 24.8278 15.8938 26.2867 13.872 28.3126C11.8502 30.3385 10.3964 32.8602 9.65625 35.625C8.94141 38.2734 8.4375 41.8008 8.08594 46.0312C7.82812 49.1016 7.66406 52.3594 7.57031 55.6289C7.53516 56.7656 7.52344 57.832 7.51172 58.7812C7.51172 59.1211 7.5 59.4141 7.5 59.6719V60.3281C7.5 60.5859 7.5 60.8789 7.51172 61.2188C7.52344 62.168 7.54687 63.2344 7.57031 64.3711C7.66406 67.6406 7.82812 70.8984 8.08594 73.9688C8.4375 78.1992 8.95313 81.7266 9.65625 84.375C11.1563 89.9883 15.5625 94.418 21.1758 95.918C24.4805 96.8086 30.9844 97.3594 40.125 97.6992C44.4727 97.8633 49.125 97.9688 53.7773 98.0273C55.4062 98.0508 56.918 98.0625 58.2773 98.0742H61.7227C63.082 98.0625 64.5937 98.0508 66.2227 98.0273C70.875 97.9688 75.5273 97.8633 79.875 97.6992C89.0156 97.3477 95.5195 96.7969 98.8242 95.918C104.437 94.418 108.844 90 110.344 84.375C111.059 81.7266 111.562 78.1992 111.914 73.9688C112.172 70.8984 112.336 67.6406 112.43 64.3711C112.465 63.2344 112.477 62.168 112.488 61.2188C112.488 60.8789 112.5 60.5859 112.5 60.3281V59.6719ZM104.062 60.2813C104.062 60.5273 104.063 60.7969 104.051 61.1133C104.039 62.0273 104.016 63.0352 103.992 64.125C103.91 67.2422 103.746 70.3594 103.5 73.2539C103.184 77.0273 102.738 80.1211 102.188 82.1953C101.461 84.9023 99.3281 87.0469 96.6328 87.7617C94.1719 88.418 87.9727 88.9453 79.5469 89.2617C75.2812 89.4258 70.6875 89.5313 66.1055 89.5898C64.5 89.6133 63.0117 89.625 61.6758 89.625H58.3242L53.8945 89.5898C49.3125 89.5313 44.7305 89.4258 40.4531 89.2617C32.0273 88.9336 25.8164 88.418 23.3672 87.7617C20.6719 87.0352 18.5391 84.9023 17.8125 82.1953C17.2617 80.1211 16.8164 77.0273 16.5 73.2539C16.2539 70.3594 16.1016 67.2422 16.0078 64.125C15.9727 63.0352 15.9609 62.0156 15.9492 61.1133C15.9492 60.7969 15.9375 60.5156 15.9375 60.2813V59.7188C15.9375 59.4727 15.9375 59.2031 15.9492 58.8867C15.9609 57.9727 15.9844 56.9648 16.0078 55.875C16.0898 52.7578 16.2539 49.6406 16.5 46.7461C16.8164 42.9727 17.2617 39.8789 17.8125 37.8047C18.5391 35.0977 20.6719 32.9531 23.3672 32.2383C25.8281 31.582 32.0273 31.0547 40.4531 30.7383C44.7188 30.5742 49.3125 30.4687 53.8945 30.4102C55.5 30.3867 56.9883 30.375 58.3242 30.375H61.6758L66.1055 30.4102C70.6875 30.4687 75.2695 30.5742 79.5469 30.7383C87.9727 31.0664 94.1836 31.582 96.6328 32.2383C99.3281 32.9648 101.461 35.0977 102.188 37.8047C102.738 39.8789 103.184 42.9727 103.5 46.7461C103.746 49.6406 103.898 52.7578 103.992 55.875C104.027 56.9648 104.039 57.9844 104.051 58.8867C104.051 59.2031 104.062 59.4844 104.062 59.7188V60.2813ZM49.5703 75.7031L76.7578 59.8828L49.5703 44.2969V75.7031Z" fill="white"/>
</svg>
