<svg width="120" height="120" viewBox="0 0 120 120" fill="none" xmlns="http://www.w3.org/2000/svg">
<path fill-rule="evenodd" clip-rule="evenodd" d="M60 7.5C30.9981 7.5 7.5 30.9981 7.5 60C7.5 89.0019 30.9981 112.5 60 112.5C89.0019 112.5 112.5 89.0019 112.5 60C112.5 30.9981 89.0019 7.5 60 7.5ZM60 16.2497C65.7518 16.2267 71.4513 17.3427 76.7697 19.5332C82.0882 21.7237 86.9203 24.9454 90.9875 29.0126C95.0547 33.0798 98.2764 37.9119 100.467 43.2303C102.657 48.5487 103.773 54.2482 103.75 60C103.773 65.7518 102.657 71.4513 100.467 76.7697C98.2764 82.0882 95.0547 86.9203 90.9875 90.9875C86.9203 95.0547 82.0882 98.2764 76.7697 100.467C71.4513 102.657 65.7518 103.773 60 103.75C54.2482 103.773 48.5487 102.657 43.2303 100.467C37.9118 98.2764 33.0797 95.0547 29.0125 90.9875C24.9453 86.9203 21.7236 82.0882 19.5331 76.7697C17.3426 71.4513 16.2266 65.7518 16.2496 60C16.2266 54.2482 17.3426 48.5487 19.5331 43.2303C21.7236 37.9118 24.9453 33.0797 29.0125 29.0125C33.0797 24.9453 37.9118 21.7236 43.2303 19.5331C48.5487 17.3426 54.2482 16.2266 60 16.2496M53.0262 37.0312C44.5168 37.0312 37.1012 37.8187 30.0574 40.0412C28.1938 40.4132 26.6406 41.8175 26.6406 44.4163C26.6406 47.0106 28.5568 49.3031 31.1513 48.9225C32.2625 48.9225 33.015 48.5156 33.75 48.5156C39.6782 47.0282 46.3631 46.3281 53.0262 46.3281C65.9807 46.3281 79.2762 49.2156 88.1619 54.3956C89.2731 54.7718 89.6494 55.2137 90.7607 55.2137C93.3594 55.2137 95.1707 53.3019 95.5468 50.7032C95.5468 48.4806 94.4357 47.0631 92.9481 46.3281C81.84 40.0369 67.0918 37.0312 53.0263 37.0312M51.7969 53.3019C44.0225 53.3019 38.4838 54.4131 32.9275 55.9007C31.0856 56.6312 30.0575 57.7819 30.0575 60C30.0575 61.8463 31.5275 63.6926 33.75 63.6926C34.5025 63.6926 34.8262 63.6574 35.9375 63.2812C40.0063 62.17 45.5931 61.505 51.5256 61.505C63.7406 61.505 74.3719 64.48 82.1507 69.2968C82.8812 69.6731 83.6381 69.9793 84.745 69.9793C86.9675 69.9793 88.4375 68.0981 88.4375 65.88C88.4375 64.3925 87.7375 62.9225 86.25 62.1874C76.625 56.2594 64.3925 53.3019 51.7969 53.3019ZM53.0262 69.2968C46.7394 69.2968 40.7762 69.9969 34.8437 71.4844C33.3563 71.8605 32.245 72.9193 32.245 74.7656C32.245 76.2531 33.4087 77.7756 35.255 77.7756C35.6312 77.7756 36.7075 77.3644 37.4425 77.3644C42.4187 76.2039 47.5097 75.6066 52.6194 75.5837C61.8638 75.5837 70.3206 77.8063 77.3644 81.875C78.1168 82.2512 78.9525 82.5575 79.6875 82.5575C81.175 82.5575 82.5926 81.4462 82.9688 79.9631C82.9688 78.0994 82.1637 77.4125 81.0525 76.6819C72.9019 71.8607 63.3818 69.2968 53.0263 69.2968" fill="white"/>
</svg>
